#!OML:ASF I:\golf\golf\golf 2\Subject 1\2002-09-07\Subject1.ASF
:FULLY-SPECIFIED
:DEGREES
155
root -6.61066 17.372 2.34927 0.410368 51.9801 -12.5415
lowerback 4.08099 -9.33442 -13.2621
upperback 1.56752 -12.793 -2.20548
thorax 1.75283 -6.47683 4.92434
lowerneck -7.81616 19.5659 2.68163
upperneck 18.6658 30.1488 -14.0733
head 9.87389 13.0615 -1.34833
rclavicle -1.6022e-013 6.36111e-015
rhumerus 16.4526 -10.0346 -76.6762
rradius 103.803
rwrist -5.3016
rhand -61.5677 51.3513
rfingers 7.12502
rthumb -33.643 24.489
lclavicle -1.6022e-013 6.36111e-015
lhumerus 97.4197 -46.9506 42.5444
lradius 33.2438
lwrist -5.89692
lhand -30.0159 -0.695699
lfingers 7.12502
lthumb -183.333 209.258
rfemur -34.6514 6.73087 28.2389
rtibia 42.4344
rfoot -11.8826 23.43
rtoes 27.8394
lfemur -4.21157 13.4707 3.31431
ltibia 25.2471
lfoot -13.0015 21.5947
ltoes -18.1607
156
root -6.60425 17.3772 2.36894 0.499583 51.873 -12.3757
lowerback 4.13363 -9.3957 -13.2094
upperback 1.55589 -12.8819 -2.23413
thorax 1.70904 -6.51694 4.87507
lowerneck -7.85297 19.6038 2.59514
upperneck 18.4507 30.1685 -14.1131
head 9.79897 13.078 -1.35258
rclavicle -1.55052e-013 -6.99722e-014
rhumerus 17.5332 -10.5377 -75.9261
rradius 104.295
rwrist -3.89128
rhand -61.7658 51.6584
rfingers 7.12502
rthumb -33.8312 24.8373
lclavicle -1.55052e-013 -6.99722e-014
lhumerus 98.2289 -46.5609 42.8242
lradius 33.5401
lwrist -5.91027
lhand -30.2218 -1.19454
lfingers 7.12502
lthumb -183.532 208.756
rfemur -34.5577 6.79852 28.1858
rtibia 42.5315
rfoot -12.4226 23.3093
rtoes 26.2929
lfemur -4.12195 13.4802 3.27998
ltibia 25.2374
lfoot -12.8216 21.6876
ltoes -18.5826
157
root -6.5978 17.3836 2.38824 0.679174 51.7781 -12.1474
lowerback 4.14254 -9.3866 -13.1354
upperback 1.51158 -12.873 -2.27854
thorax 1.62838 -6.50474 4.80275
lowerneck -7.94625 19.561 2.4919
upperneck 18.3653 30.0993 -14.1072
head 9.76161 13.0437 -1.34615
rclavicle -2.34566e-014 3.18055e-014
rhumerus 18.491 -11.236 -74.9835
rradius 104.805
rwrist -2.82093
rhand -61.6141 52.4286
rfingers 7.12502
rthumb -33.6871 25.576
lclavicle -2.34566e-014 3.18055e-014
lhumerus 98.9639 -46.4011 43.2483
lradius 34.0702
lwrist -5.80529
lhand -29.3836 -1.13175
lfingers 7.12502
lthumb -182.722 208.831
rfemur -34.5154 6.82649 28.081
rtibia 42.6262
rfoot -12.6509 23.3793
rtoes 25.7327
lfemur -4.07524 13.7782 3.19205
ltibia 25.2864
lfoot -12.8584 21.5014
ltoes -17.4493
158
root -6.59274 17.3735 2.40319 0.717755 51.6741 -12.1315
lowerback 4.21466 -9.45209 -12.8951
upperback 1.38313 -12.9775 -2.29747
thorax 1.41228 -6.53795 4.69039
lowerneck -7.88435 19.6384 2.39855
upperneck 18.2171 30.172 -14.0682
head 9.68287 13.0929 -1.32789
rclavicle 1.08536e-013 -6.36111e-015
rhumerus 19.2391 -11.8047 -74.0484
rradius 105.295
rwrist -2.00398
rhand -61.4989 52.9766
rfingers 7.12502
rthumb -33.5776 26.1001
lclavicle 1.08536e-013 -6.36111e-015
lhumerus 99.3392 -46.216 43.7843
lradius 34.6423
lwrist -5.5914
lhand -29.0072 -1.00911
lfingers 7.12502
lthumb -182.359 208.958
rfemur -34.549 6.91047 28.0978
rtibia 42.716
rfoot -12.7028 23.4771
rtoes 25.7732
lfemur -3.92899 13.9513 3.26562
ltibia 25.3784
lfoot -12.9864 21.1265
ltoes -16.9316
159
root -6.58548 17.366 2.41972 0.811071 51.6067 -12.0222
lowerback 4.25956 -9.53635 -12.7865
upperback 1.29974 -13.1018 -2.28643
thorax 1.29865 -6.59004 4.65991
lowerneck -7.87429 19.7344 2.21017
upperneck 18.0639 30.2786 -14.0175
head 9.59836 13.1508 -1.28739
rclavicle 1.08536e-013 3.49861e-014
rhumerus 20.0638 -12.3628 -73.1793
rradius 105.744
rwrist -1.07956
rhand -61.5195 53.2777
rfingers 7.12502
rthumb -33.5972 26.4054
lclavicle 1.08536e-013 3.49861e-014
lhumerus 99.6593 -46.0059 44.4819
lradius 35.0204
lwrist -5.50217
lhand -29.4097 -1.57381
lfingers 7.12502
lthumb -182.747 208.388
rfemur -34.5449 6.95528 28.0505
rtibia 42.7996
rfoot -12.7848 23.6508
rtoes 26.2833
lfemur -3.82332 14.0418 3.26046
ltibia 25.4589
lfoot -12.8368 20.938
ltoes -17.3892
160
root -6.57661 17.3696 2.43802 1.02296 51.6003 -11.7274
lowerback 4.27257 -9.59045 -12.8526
upperback 1.27424 -13.1802 -2.27582
thorax 1.29523 -6.62823 4.70291
lowerneck -8.01001 19.741 2.06586
upperneck 18.0908 30.3164 -14.0148
head 9.61341 13.1495 -1.25158
rclavicle -2.22639e-014 -1.59028e-014
rhumerus 20.9624 -12.9347 -72.2652
rradius 106.237
rwrist 0.0710235
rhand -61.6956 53.3347
rfingers 7.12502
rthumb -33.7645 26.499
lclavicle -2.22639e-014 -1.59028e-014
lhumerus 100.166 -45.7753 45.0855
lradius 35.3546
lwrist -5.39641
lhand -29.6889 -2.38585
lfingers 7.12502
lthumb -183.017 207.573
rfemur -34.4924 6.93122 27.8601
rtibia 42.8506
rfoot -12.6112 23.944
rtoes 27.6091
lfemur -3.78331 14.1729 3.11883
ltibia 25.4994
lfoot -12.8024 20.76
ltoes -16.6499
161
root -6.57088 17.3708 2.45281 1.20156 51.5884 -11.4663
lowerback 4.36421 -9.60386 -12.9004
upperback 1.24111 -13.2165 -2.30052
thorax 1.22043 -6.64037 4.721
lowerneck -8.17247 19.7094 2.17998
upperneck 18.2417 30.3215 -14.0831
head 9.72658 13.1265 -1.2547
rclavicle -1.55052e-014 1.90833e-014
rhumerus 21.7395 -13.5404 -71.3467
rradius 106.723
rwrist 1.42943
rhand -62.1358 52.9165
rfingers 7.12502
rthumb -34.1827 26.1735
lclavicle -1.55052e-014 1.90833e-014
lhumerus 100.857 -45.5654 45.4072
lradius 35.7757
lwrist -5.25488
lhand -29.6695 -2.91859
lfingers 7.12502
lthumb -182.998 207.04
rfemur -34.4245 6.92749 27.6814
rtibia 42.8168
rfoot -12.3879 24.1759
rtoes 28.4146
lfemur -3.70629 14.5426 2.97003
ltibia 25.577
lfoot -12.5367 20.5659
ltoes -17.1193
162
root -6.5656 17.3752 2.46679 1.29526 51.5157 -11.2645
lowerback 4.51741 -9.58292 -12.8801
upperback 1.21357 -13.214 -2.35935
thorax 1.08732 -6.6293 4.68628
lowerneck -8.20245 19.7328 2.31343
upperneck 18.1735 30.3556 -14.2013
head 9.75263 13.1412 -1.2922
rclavicle 5.1684e-015 7.95139e-014
rhumerus 22.4587 -14.1712 -70.4789
rradius 107.119
rwrist 2.72508
rhand -62.59 52.2023
rfingers 7.12502
rthumb -34.6139 25.557
lclavicle 5.1684e-015 7.95139e-014
lhumerus 101.703 -45.3322 45.4198
lradius 36.2
lwrist -5.02695
lhand -29.8402 -3.31922
lfingers 7.12502
lthumb -183.163 206.637
rfemur -34.2471 6.96484 27.57
rtibia 42.7007
rfoot -12.6688 24.146
rtoes 26.7083
lfemur -3.65356 14.7516 2.88511
ltibia 25.7458
lfoot -12.3218 20.4806
ltoes -17.4242
163
root -6.56007 17.3921 2.48434 1.39048 51.4091 -11.1035
lowerback 4.59361 -9.63054 -12.8737
upperback 1.16271 -13.294 -2.36284
thorax 1.00262 -6.66227 4.69617
lowerneck -8.08186 19.8676 2.18748
upperneck 17.8679 30.4904 -14.2373
head 9.62188 13.228 -1.29473
rclavicle 7.91163e-014 1.90833e-014
rhumerus 23.2215 -14.5783 -69.7018
rradius 107.492
rwrist 3.75693
rhand -62.867 51.4309
rfingers 7.12502
rthumb -34.8767 24.8462
lclavicle 7.91163e-014 1.90833e-014
lhumerus 102.378 -44.8995 45.4068
lradius 36.5808
lwrist -4.73966
lhand -30.2179 -3.6599
lfingers 7.12502
lthumb -183.528 206.291
rfemur -34.0523 7.0522 27.5011
rtibia 42.5605
rfoot -13.0503 24.0228
rtoes 24.6038
lfemur -3.78848 14.7212 2.84788
ltibia 25.9233
lfoot -12.1702 20.6357
ltoes -17.1058
164
root -6.55518 17.4086 2.50183 1.59962 51.3315 -10.9337
lowerback 4.50867 -9.72535 -12.8691
upperback 1.07569 -13.4143 -2.38233
thorax 0.971843 -6.71605 4.6615
lowerneck -7.7587 19.9598 2.13366
upperneck 17.4796 30.5163 -14.2376
head 9.42091 13.2945 -1.33863
rclavicle -6.14245e-014 3.18055e-014
rhumerus 23.8632 -14.9445 -69.0509
rradius 107.851
rwrist 4.60746
rhand -62.9714 51.0753
rfingers 7.12502
rthumb -34.9758 24.5136
lclavicle -6.14245e-014 3.18055e-014
lhumerus 102.88 -44.504 45.4268
lradius 36.9183
lwrist -4.74368
lhand -30.5419 -4.00161
lfingers 7.12502
lthumb -183.841 205.944
rfemur -34.0043 7.21895 27.3904
rtibia 42.456
rfoot -13.2396 23.9121
rtoes 26.029
lfemur -4.02802 15.1046 2.73944
ltibia 25.997
lfoot -10.8183 21.0132
ltoes -21.0573
165
root -6.55023 17.4092 2.51272 1.78608 51.2898 -10.7874
lowerback 4.44983 -9.75042 -12.7657
upperback 0.98093 -13.4423 -2.49511
thorax 0.857302 -6.71691 4.4988
lowerneck -7.23441 19.9284 2.48492
upperneck 17.0832 30.3666 -14.4334
head 9.26379 13.2963 -1.52151
rclavicle -5.34731e-014 9.54166e-015
rhumerus 24.2695 -15.5301 -68.4264
rradius 108.198
rwrist 5.3566
rhand -62.9948 50.6787
rfingers 7.12502
rthumb -34.998 24.1222
lclavicle -5.34731e-014 9.54166e-015
lhumerus 103.647 -44.282 45.1106
lradius 37.2524
lwrist -4.62679
lhand -30.9236 -4.24229
lfingers 7.12502
lthumb -184.209 205.696
rfemur -34.0265 7.38471 27.2686
rtibia 42.4183
rfoot -13.505 23.7898
rtoes 22.4111
lfemur -4.05054 15.3119 2.6683
ltibia 25.9633
lfoot -9.95736 20.985
ltoes -23.606
166
root -6.54657 17.3995 2.51846 1.88305 51.2452 -10.6808
lowerback 4.55028 -9.81129 -12.668
upperback 0.916194 -13.5421 -2.49768
thorax 0.726873 -6.75674 4.47197
lowerneck -7.19852 19.9504 2.49342
upperneck 16.8566 30.3493 -14.477
head 9.18519 13.3076 -1.54993
rclavicle 3.85642e-014 6.36111e-015
rhumerus 24.935 -15.8794 -67.7953
rradius 108.511
rwrist 6.00963
rhand -63.1279 50.2651
rfingers 7.12502
rthumb -35.1243 23.7381
lclavicle 3.85642e-014 6.36111e-015
lhumerus 104.21 -43.8071 45.0547
lradius 37.6011
lwrist -4.61853
lhand -31.0404 -4.29615
lfingers 7.12502
lthumb -184.322 205.64
rfemur -34.0414 7.45463 27.2019
rtibia 42.4503
rfoot -13.9407 23.698
rtoes 19.9824
lfemur -3.83305 14.8284 2.69003
ltibia 25.837
lfoot -11.4883 20.5029
ltoes -18.5496
